<svg t="1616986877873" class="icon" viewBox="0 0 1024 1024" version="1.1" xmlns="http://www.w3.org/2000/svg" p-id="2071" width="200" height="200"><path d="M353.91 792.73l0.42-0.09c5.86-1.25 11-4.16 14.98-8.16l415.76-415.76c35.21-35.21 35.21-92.5 0-127.71l-98.09-98.09c-35.21-35.21-92.5-35.21-127.71 0L143.48 558.7c-0.37 0.37-0.73 0.75-1.08 1.14-0.02 0.03-0.05 0.06-0.07 0.08-0.31 0.34-0.61 0.69-0.9 1.04-0.08 0.1-0.15 0.2-0.23 0.3-0.23 0.29-0.45 0.57-0.67 0.87-0.1 0.14-0.2 0.29-0.3 0.43-0.18 0.26-0.36 0.51-0.54 0.77-0.12 0.17-0.23 0.35-0.34 0.53-0.15 0.23-0.3 0.47-0.44 0.71-0.12 0.2-0.23 0.41-0.35 0.61-0.12 0.22-0.25 0.44-0.37 0.66-0.12 0.23-0.23 0.46-0.35 0.68-0.1 0.21-0.21 0.41-0.31 0.62-0.12 0.25-0.23 0.51-0.34 0.76-0.08 0.19-0.17 0.38-0.25 0.58-0.12 0.28-0.22 0.57-0.33 0.85-0.06 0.17-0.13 0.34-0.19 0.51-0.12 0.33-0.22 0.66-0.33 0.99-0.04 0.14-0.09 0.27-0.13 0.41-0.12 0.39-0.23 0.79-0.33 1.19l-0.06 0.24a32.21 32.21 0 0 0-0.6 3.05l-31.03 214.35a29.993 29.993 0 0 0 8.48 25.51 29.986 29.986 0 0 0 25.51 8.48L352.35 793c0.02 0 0.04-0.01 0.06-0.01 0.31-0.05 0.62-0.1 0.93-0.16 0.19-0.03 0.38-0.06 0.57-0.1z m247.78-607.39c11.82-11.82 31.04-11.82 42.86 0l98.09 98.09c11.82 11.82 11.82 31.04 0 42.86l-62.75 62.75L538.94 248.1l62.75-62.76zM496.51 290.52l140.95 140.95-289.41 289.41L207.1 579.93l289.41-289.41zM185.79 643.47l98.72 98.72-115.43 16.71 16.71-115.43zM898.99 764.35H428.95c-16.57 0-30 13.43-30 30s13.43 30 30 30H899c16.57 0 30-13.43 30-30s-13.44-30-30.01-30z" p-id="2072" fill="#8a8a8a"></path></svg>